
<svg width="100px" height="100px" viewBox="0 0 32 32" xmlns="http://www.w3.org/2000/svg" fill="#fafafa" stroke="#fafafa"><g id="SVGRepo_bgCarrier" stroke-width="0"></g><g id="SVGRepo_tracerCarrier" stroke-linecap="round" stroke-linejoin="round"></g><g id="SVGRepo_iconCarrier"> <defs> <style>.cls-1{fill:none;stroke:#fafafa;stroke-linecap:round;stroke-linejoin:round;}</style> </defs> <g id="ic-social-media-youtube"> <path class="cls-1" d="M16,25.47a55.55,55.55,0,0,0,9.59-.59A3.51,3.51,0,0,0,28,23S29,20.74,29,16,28,9,28,9a3.86,3.86,0,0,0-2.37-1.9A55.55,55.55,0,0,0,16,6.53a55.55,55.55,0,0,0-9.59.59A3.51,3.51,0,0,0,4,9S3,11.26,3,16,4,23,4,23a3.86,3.86,0,0,0,2.37,1.9A55.55,55.55,0,0,0,16,25.47Z"></path> <path class="cls-1" d="M12.78,19.22V12.78A.79.79,0,0,1,14,12.11l5.36,3.22a.78.78,0,0,1,0,1.34L14,19.89A.79.79,0,0,1,12.78,19.22Z"></path> </g> </g></svg>