<!-- https://www.svgrepo.com/svg/424291/cabinet-furniture-home-22?edit=true -->
<svg fill="#C09F80" width="100px" height="100px" viewBox="0 0 512 512" enable-background="new 0 0 512 512" id="Layer_1" version="1.1" xml:space="preserve" xmlns="http://www.w3.org/2000/svg" xmlns:xlink="http://www.w3.org/1999/xlink" stroke="#C09F80"><g id="SVGRepo_bgCarrier" stroke-width="0"></g><g id="SVGRepo_tracerCarrier" stroke-linecap="round" stroke-linejoin="round"></g><g id="SVGRepo_iconCarrier"> <g> <g> <path d="M397.199,445.814h-283c-5.523,0-10-4.478-10-10V75.838c0-5.522,4.477-10,10-10h283c5.523,0,10,4.478,10,10v359.977 C407.199,441.337,402.722,445.814,397.199,445.814z M124.199,425.814h263V85.838h-263V425.814z"></path> </g> <g> <path d="M397.801,290.492H260.596c-5.523,0-10-4.478-10-10v-203.5c0-5.522,4.477-10,10-10h137.205c5.523,0,10,4.478,10,10v203.5 C407.801,286.015,403.324,290.492,397.801,290.492z M270.596,270.492h117.205v-183.5H270.596V270.492z"></path> </g> <g> <path d="M261.332,290.492H114.873c-5.523,0-10-4.478-10-10v-203.5c0-5.522,4.477-10,10-10h146.459c5.523,0,10,4.478,10,10v203.5 C271.332,286.015,266.855,290.492,261.332,290.492z M124.873,270.492h126.459v-183.5H124.873V270.492z"></path> </g> <g> <path d="M397.199,368.328H114.873c-5.523,0-10-4.478-10-10v-77.836c0-5.522,4.477-10,10-10h282.326c5.523,0,10,4.478,10,10v77.836 C407.199,363.851,402.722,368.328,397.199,368.328z M124.873,348.328h262.326v-57.836H124.873V348.328z"></path> </g> <g> <path d="M397.199,446.162H114.873c-5.523,0-10-4.478-10-10v-77.834c0-5.522,4.477-10,10-10h282.326c5.523,0,10,4.478,10,10v77.834 C407.199,441.685,402.722,446.162,397.199,446.162z M124.873,426.162h262.326v-57.834H124.873V426.162z"></path> </g> <g> <path d="M266.199,329.41h-17c-5.523,0-10-4.478-10-10s4.477-10,10-10h17c5.523,0,10,4.478,10,10S271.722,329.41,266.199,329.41z"></path> </g> <g> <path d="M269.832,407.244h-17c-5.523,0-10-4.478-10-10s4.477-10,10-10h17c5.523,0,10,4.478,10,10S275.355,407.244,269.832,407.244 z"></path> </g> <g> <path d="M287.199,196.992c-5.523,0-10-4.478-10-10v-22.666c0-5.522,4.477-10,10-10s10,4.478,10,10v22.666 C297.199,192.515,292.722,196.992,287.199,196.992z"></path> </g> <g> <path d="M145.032,127.492c-2.56,0-5.118-0.977-7.071-2.929c-3.905-3.905-3.905-10.237,0-14.143l13.167-13.166 c3.905-3.904,10.236-3.903,14.142,0c3.905,3.905,3.905,10.237,0,14.143l-13.167,13.166 C150.15,126.516,147.591,127.492,145.032,127.492z"></path> </g> <g> <path d="M155.865,157.326c-2.559,0-5.119-0.977-7.071-2.929c-3.905-3.905-3.905-10.237,0-14.143l38-38 c3.905-3.904,10.237-3.904,14.143,0c3.905,3.905,3.905,10.237,0,14.143l-38,38C160.983,156.35,158.424,157.326,155.865,157.326z"></path> </g> </g> </g></svg>