<!-- https://www.svgrepo.com/svg/285577/sofa?edit=true -->

<svg fill="#C09F80" height="100px" width="100px" version="1.1" id="Capa_1" xmlns="http://www.w3.org/2000/svg" xmlns:xlink="http://www.w3.org/1999/xlink" viewBox="0 0 512 512" xml:space="preserve" stroke="#C09F80"><g id="SVGRepo_bgCarrier" stroke-width="0"></g><g id="SVGRepo_tracerCarrier" stroke-linecap="round" stroke-linejoin="round"></g><g id="SVGRepo_iconCarrier"> <g> <g> <path d="M447.619,179.471v-8.016c0-74.061-60.253-134.315-134.315-134.315H197.281c-19.09,0-37.565,3.972-54.914,11.806 c-3.862,1.745-5.58,6.289-3.836,10.152c1.745,3.864,6.289,5.581,10.152,3.836c15.35-6.931,31.701-10.445,48.598-10.445h116.023 c65.598,0,118.967,53.368,118.967,118.967v9.207c-29.386,5.75-51.86,30.676-53.645,61.579c-0.081,0.447-0.124,0.909-0.124,1.379 V282.5c-3.561-1.722-7.553-2.689-11.767-2.689h-46.674l18.474-49.646c1.477-3.972-0.544-8.39-4.516-9.869 c-3.971-1.477-8.39,0.544-9.869,4.516l-20.465,54.999h-40.72v-80.054c0-4.238-3.436-7.674-7.674-7.674 c-4.238,0-7.674,3.436-7.674,7.674v80.054h-40.013l-20.465-54.999c-1.479-3.972-5.896-5.995-9.869-4.516 c-3.972,1.479-5.994,5.897-4.516,9.869l18.474,49.646h-6.886c-4.238,0-7.674,3.436-7.674,7.674c0,4.238,3.436,7.674,7.674,7.674 h182.392c6.488,0,11.767,5.279,11.767,11.767v36.54c0,2.351-1.912,4.264-4.264,4.264H137.761c-2.351,0-4.264-1.912-4.264-4.264 v-36.54c0-6.488,5.279-11.767,11.767-11.767c4.238,0,7.674-3.436,7.674-7.674c0-4.238-3.436-7.674-7.674-7.674 c-4.213,0-8.206,0.967-11.767,2.689v-38.879c0-0.471-0.043-0.932-0.124-1.379c-1.813-31.395-24.986-56.604-55.061-61.821v-8.965 c0-32.286,12.851-62.555,36.186-85.228c3.04-2.954,3.109-7.812,0.156-10.851c-2.953-3.04-7.812-3.108-10.851-0.156 c-26.335,25.59-40.838,59.767-40.838,96.236v8.069C27.915,181.495,0,210.625,0,246.16c0,28.212,17.763,53.203,43.864,62.712 v158.313c0,4.238,3.436,7.674,7.674,7.674h74.285h260.354h74.285c4.238,0,7.674-3.436,7.674-7.674V308.872 c26.102-9.509,43.864-34.5,43.864-62.712C512,210.148,483.33,180.725,447.619,179.471z M118.149,306.926v36.54v11.938v104.108 H59.212V303.248c0-3.479-2.34-6.523-5.703-7.416c-22.468-5.971-38.161-26.397-38.161-49.672c0-28.342,23.059-51.401,51.401-51.401 c27.624,0,50.176,21.606,51.343,49.187c0.009,0.223,0.029,0.445,0.057,0.663V306.926z M378.504,459.512h-0.001H133.497v-96.434 h4.264H374.24h4.264V459.512z M458.491,295.832c-3.362,0.894-5.703,3.937-5.703,7.417v156.264H393.85v-104.11v-11.938v-36.54 v-62.313c0.029-0.219,0.047-0.442,0.057-0.667c1.167-27.582,23.721-49.187,51.343-49.187c28.342,0,51.401,23.059,51.401,51.401 C496.652,269.434,480.961,289.86,458.491,295.832z"></path> </g> </g> <g> <g> <path d="M293.868,64.737h-26.535c-4.238,0-7.674,3.436-7.674,7.674c0,4.238,3.436,7.674,7.674,7.674h26.535 c17.02,0,30.866,13.847,30.866,30.866v2.866c0,17.02-13.847,30.866-30.866,30.866h-76.443c-17.02,0-30.866-13.847-30.866-30.866 v-2.866c0-17.02,13.847-30.866,30.866-30.866h8.979c4.238,0,7.674-3.436,7.674-7.674c0-4.238-3.436-7.674-7.674-7.674h-8.979 c-25.482,0-46.214,20.732-46.214,46.214v2.866c0,25.482,20.732,46.214,46.214,46.214h76.443c25.482,0,46.214-20.732,46.214-46.214 v-2.866C340.082,85.469,319.351,64.737,293.868,64.737z"></path> </g> </g> <g> <g> <path d="M445.251,220.736c-12.619,0-22.885,10.267-22.885,22.885s10.267,22.885,22.885,22.885 c12.618,0,22.885-10.267,22.885-22.885C468.136,231.003,457.87,220.736,445.251,220.736z M445.251,251.159 c-4.156,0-7.537-3.382-7.537-7.537c0-4.155,3.382-7.537,7.537-7.537c4.155,0,7.537,3.382,7.537,7.537 C452.788,247.776,449.408,251.159,445.251,251.159z"></path> </g> </g> <g> <g> <path d="M66.75,220.737c-12.618,0-22.886,10.266-22.886,22.885c0,12.619,10.267,22.885,22.885,22.885 c12.618,0,22.886-10.267,22.886-22.885C89.634,231.003,79.367,220.737,66.75,220.737z M66.749,251.159 c-4.155,0-7.537-3.382-7.537-7.537c0-4.156,3.382-7.537,7.537-7.537c4.155,0,7.537,3.382,7.537,7.537 C74.286,247.776,70.904,251.159,66.749,251.159z"></path> </g> </g> </g></svg>